<svg width="60" height="60" viewBox="0 0 60 60" fill="none" xmlns="http://www.w3.org/2000/svg">
<path d="M59.1259 28.9154C58.7841 28.8722 58.3884 28.8327 58.0862 28.7967C57.6797 28.7499 57.3344 28.4154 57.3092 28.0053C57.2552 27.2103 57.1509 26.4224 57.0286 25.6454C56.9675 25.2425 57.1797 24.8504 57.561 24.7101C57.856 24.6022 58.1762 24.4799 58.5143 24.3504C58.9028 24.1993 59.1223 23.7856 59.0323 23.3755C59.0107 23.282 58.9892 23.1884 58.9676 23.0949C58.874 22.6776 58.4855 22.397 58.061 22.4366C57.7121 22.469 57.374 22.5049 57.0682 22.5409C56.6617 22.5877 56.284 22.3287 56.1653 21.933C55.935 21.1703 55.676 20.4221 55.3846 19.6918C55.2335 19.3141 55.363 18.8788 55.7048 18.6594C55.9746 18.4831 56.2732 18.2853 56.5789 18.0802C56.9243 17.8464 57.0502 17.3931 56.8703 17.0118C56.8308 16.9291 56.7912 16.8427 56.7516 16.76C56.5682 16.3751 56.1293 16.188 55.7264 16.3211C55.3846 16.4362 55.0537 16.5478 54.7551 16.6557C54.3666 16.7924 53.9421 16.6269 53.7406 16.2672C53.3485 15.5801 52.9276 14.9074 52.4816 14.2598C52.2513 13.9253 52.2801 13.472 52.5643 13.1806C52.7945 12.9396 53.05 12.6734 53.3126 12.3964C53.5968 12.0907 53.6183 11.6194 53.3593 11.2884C53.3018 11.2165 53.2478 11.1446 53.1903 11.0762C52.9241 10.7452 52.4564 10.6589 52.0931 10.8783C51.7729 11.0726 51.4671 11.2633 51.1937 11.4359C50.8448 11.6554 50.3951 11.587 50.1181 11.2848C49.5857 10.7021 49.0281 10.1409 48.4454 9.60849C48.1468 9.33149 48.0748 8.88902 48.2871 8.54008C48.4669 8.2451 48.6612 7.91774 48.8591 7.57599C49.0677 7.21626 48.985 6.7522 48.6612 6.4896C48.5929 6.43564 48.5245 6.37808 48.4562 6.32412C48.1252 6.05792 47.6468 6.0795 47.341 6.37448C47.064 6.64428 46.7978 6.90689 46.5604 7.14431C46.269 7.4357 45.8157 7.46807 45.4776 7.23425C44.83 6.78458 44.1645 6.36369 43.4774 5.96798C43.1249 5.76653 42.9594 5.34924 43.0853 4.96073C43.1968 4.62258 43.3192 4.24486 43.4415 3.85635C43.5638 3.45704 43.3803 3.02896 43.0098 2.8419C42.9342 2.80592 42.8587 2.76635 42.7832 2.73038C42.4018 2.54332 41.9414 2.66922 41.7076 3.02536C41.4881 3.35991 41.2831 3.68727 41.096 3.98225C40.8766 4.33119 40.4449 4.4643 40.0636 4.31321C39.3333 4.02182 38.5887 3.75922 37.8296 3.52899C37.4411 3.41028 37.1857 3.03975 37.2253 2.63685C37.2612 2.27352 37.2972 1.86702 37.3296 1.44973C37.362 1.03244 37.085 0.654715 36.6785 0.557587C36.5993 0.539601 36.5202 0.521614 36.441 0.503627C36.0274 0.410097 35.6101 0.636729 35.4626 1.03244C35.3187 1.41735 35.1856 1.79507 35.0669 2.13322C34.9302 2.52173 34.5381 2.74837 34.1352 2.68721C33.3617 2.5685 32.5775 2.47857 31.7861 2.42461C31.3796 2.39583 31.0486 2.09365 30.9983 1.68715C30.9515 1.31663 30.8975 0.902932 30.8328 0.474849C30.7752 0.0719468 30.4263 0.00359734 30.0126 0C29.9371 0 29.8615 0.237424 29.786 0.237424H29.7572C29.3399 0.237424 28.9874 0.316566 28.9334 0.73026C28.8794 1.14755 28.8291 1.43534 28.7895 1.80227C28.7427 2.21236 28.4082 2.46058 28.0017 2.48936C27.2103 2.54332 26.4261 2.60088 25.6526 2.72318C25.2533 2.78434 24.8612 2.55051 24.7245 2.1656C24.595 1.80586 24.4439 1.39936 24.2856 0.989268C24.1346 0.600755 23.7245 0.37772 23.318 0.464057C23.2424 0.482043 23.1705 0.496433 23.0949 0.510822C22.6812 0.604353 22.4006 0.989268 22.4402 1.41375C22.4798 1.84184 22.5229 2.25913 22.5661 2.62965C22.6129 3.03975 22.3539 3.41387 21.9618 3.53618C21.2027 3.76641 20.4581 4.02902 19.7314 4.3204C19.3537 4.47149 18.9256 4.34199 18.7026 4.00024C18.4939 3.67648 18.2565 3.31315 18.0047 2.94622C17.7709 2.60088 17.3176 2.47857 16.9435 2.65843C16.8751 2.69081 16.8104 2.72318 16.742 2.75556C16.3607 2.93903 16.1736 3.3779 16.3067 3.7808C16.4434 4.19809 16.5801 4.601 16.706 4.96073C16.8427 5.34924 16.6737 5.77373 16.3175 5.97878C15.6304 6.37089 14.9649 6.79537 14.3174 7.24504C13.9829 7.47887 13.5332 7.44649 13.2454 7.1623C12.9684 6.8925 12.6518 6.58673 12.3245 6.28095C12.0187 5.99676 11.5511 5.97878 11.2237 6.23778C11.1661 6.28455 11.1086 6.33131 11.051 6.37448C10.7237 6.64069 10.6373 7.10834 10.8532 7.47167C11.0798 7.84939 11.3028 8.21632 11.5079 8.54008C11.7273 8.88902 11.659 9.33869 11.3568 9.61928C10.7776 10.1553 10.22 10.7165 9.68764 11.2992C9.41425 11.5978 8.97177 11.6698 8.62283 11.4575C8.29188 11.2525 7.91416 11.0294 7.52564 10.8028C7.16591 10.5942 6.70545 10.6805 6.44284 11.0043C6.39608 11.0618 6.35291 11.1194 6.30615 11.1769C6.04354 11.5079 6.06512 11.9863 6.35651 12.2921C6.66228 12.6123 6.96086 12.918 7.23426 13.1914C7.52564 13.4828 7.55802 13.9397 7.32419 14.2778C6.87812 14.929 6.45723 15.5981 6.06512 16.2851C5.86367 16.6377 5.44638 16.8068 5.06506 16.6773C4.69454 16.5549 4.28084 16.4182 3.84916 16.2816C3.44986 16.1556 3.02178 16.3463 2.83831 16.724C2.80593 16.7888 2.77356 16.8571 2.74478 16.9219C2.56491 17.3032 2.69082 17.7637 3.04336 17.9939C3.41029 18.2349 3.77002 18.4687 4.09378 18.6738C4.44272 18.8932 4.57583 19.3285 4.42114 19.7134C4.12976 20.4473 3.87075 21.1919 3.64052 21.9546C3.52181 22.3431 3.15488 22.6021 2.75197 22.5625C2.36706 22.5229 1.93538 22.4834 1.49291 22.451C1.07562 22.4186 0.697895 22.6992 0.604364 23.1093C0.586377 23.1812 0.571988 23.2532 0.557599 23.3251C0.467665 23.7388 0.6907 24.1561 1.08641 24.3036C1.4965 24.4583 1.89581 24.6022 2.25194 24.7281C2.63686 24.8648 2.86349 25.2605 2.80234 25.667C2.68363 26.444 2.59729 27.2283 2.54333 28.0269C2.51455 28.4334 2.21237 28.7679 1.80947 28.8183C1.43175 28.865 1.16555 28.9226 0.730271 28.9873C0.320174 29.0485 0.165489 29.3974 0.165489 29.8147V29.8291C0.165489 29.9083 0.0108032 29.9874 0.0108032 30.063C0.0144006 30.4838 0.248228 30.8364 0.665519 30.8939C1.09 30.9515 1.46773 31.0019 1.83825 31.0414C2.24475 31.0882 2.53613 31.4227 2.56491 31.8328C2.61887 32.6279 2.69801 33.4157 2.81673 34.1927C2.87788 34.5956 2.65485 34.9877 2.27353 35.128C1.92099 35.2575 1.52528 35.405 1.12598 35.5633C0.733868 35.7144 0.514431 36.1353 0.607961 36.5454C0.625948 36.6209 0.643935 36.6964 0.661921 36.772C0.75905 37.1821 1.14037 37.4591 1.56126 37.4231C1.98214 37.3871 2.38864 37.3404 2.75197 37.3008C3.15847 37.254 3.53619 37.513 3.65491 37.9087C3.88514 38.6714 4.14414 39.4196 4.43553 40.1499C4.58662 40.5276 4.45711 40.9593 4.11896 41.1823C3.81319 41.3802 3.47144 41.6068 3.1225 41.8442C2.77356 42.0817 2.65485 42.5385 2.83831 42.9198C2.87428 42.9918 2.91026 43.0637 2.94623 43.1357C3.13329 43.5134 3.56857 43.6969 3.96428 43.5674C4.35639 43.4379 4.73411 43.3084 5.07226 43.1896C5.46077 43.0529 5.88166 43.222 6.08311 43.5782C6.47522 44.2652 6.89611 44.9379 7.34218 45.5855C7.57241 45.92 7.54363 46.3697 7.25944 46.6647C7.01122 46.9201 6.73783 47.2079 6.46083 47.5064C6.17304 47.8158 6.15865 48.2871 6.42126 48.618C6.47522 48.6828 6.52558 48.7475 6.57954 48.8159C6.84575 49.1432 7.3098 49.226 7.66954 49.0101C8.01128 48.8051 8.34224 48.6 8.63722 48.413C8.98256 48.1935 9.43223 48.2619 9.70923 48.5677C10.2416 49.1504 10.7992 49.7116 11.382 50.244C11.6806 50.521 11.7525 50.9635 11.5403 51.3124C11.3604 51.6074 11.1626 51.9384 10.9611 52.2837C10.7489 52.647 10.8388 53.1111 11.1661 53.3737C11.2345 53.4277 11.3028 53.4816 11.3712 53.5356C11.7022 53.7982 12.177 53.773 12.4792 53.4816C12.7562 53.2118 13.026 52.9492 13.2634 52.7082C13.5548 52.4168 14.008 52.3844 14.3462 52.6183C14.9937 53.0679 15.6592 53.4888 16.3463 53.8845C16.6989 54.086 16.8643 54.5069 16.7348 54.8918C16.6269 55.2119 16.5118 55.5645 16.3967 55.935C16.2708 56.3379 16.4614 56.7732 16.8392 56.9567C16.9183 56.9962 17.001 57.0322 17.0802 57.0718C17.4615 57.2516 17.9184 57.1221 18.1486 56.7696C18.3536 56.4566 18.5479 56.1508 18.7206 55.8703C18.94 55.5213 19.3753 55.3846 19.7566 55.5393C20.4869 55.8307 21.2315 56.0933 21.9905 56.3235C22.3791 56.4422 22.6345 56.8128 22.5949 57.2193C22.5625 57.543 22.5301 57.9028 22.5014 58.2733C22.469 58.6942 22.7496 59.0755 23.1597 59.169C23.2496 59.1906 23.3395 59.2086 23.4295 59.2302C23.8396 59.3201 24.2569 59.0935 24.4008 58.6942C24.5267 58.3524 24.6454 58.0215 24.7497 57.7193C24.8864 57.3308 25.2785 57.1005 25.685 57.1617C26.4584 57.2804 27.2427 57.3703 28.0341 57.4243C28.4406 57.4531 28.7715 57.7589 28.8219 58.1618C28.8615 58.4783 28.9082 58.6942 28.9586 59.0539C29.0161 59.4676 29.3687 59.6511 29.7824 59.6511H29.8004C29.8975 59.6511 29.9946 59.7806 30.0917 59.777C30.5126 59.7734 30.8652 59.5216 30.9191 59.1007C30.9659 58.7517 31.0055 58.4424 31.0378 58.133C31.0846 57.7229 31.4192 57.4279 31.8257 57.4027C32.6171 57.3488 33.4013 57.2696 34.1747 57.1473C34.5776 57.0862 34.9661 57.3128 35.1064 57.6977C35.2144 57.9891 35.3331 58.3128 35.459 58.6438C35.6101 59.0359 36.0274 59.2589 36.4375 59.1654C36.531 59.1438 36.6281 59.1222 36.7216 59.1007C37.1317 59.0035 37.4087 58.615 37.3692 58.1941C37.3368 57.8524 37.3008 57.5178 37.2684 57.2193C37.2217 56.8092 37.4807 56.4314 37.8728 56.3127C38.6318 56.0825 39.3765 55.8199 40.1031 55.5285C40.4809 55.3774 40.9089 55.5069 41.132 55.8487C41.2975 56.1041 41.4809 56.3847 41.6716 56.6725C41.9054 57.025 42.3623 57.1473 42.74 56.9638C42.8299 56.9207 42.9199 56.8775 43.0062 56.8343C43.3839 56.6473 43.5674 56.2084 43.4343 55.8055C43.3264 55.4853 43.222 55.176 43.1249 54.8918C42.9882 54.5033 43.1573 54.0788 43.5134 53.8737C44.2005 53.4816 44.866 53.0571 45.5135 52.6075C45.8481 52.3772 46.2978 52.406 46.5855 52.6902C46.8014 52.8989 47.0388 53.1291 47.287 53.3665C47.5928 53.6543 48.064 53.6759 48.395 53.4133C48.4741 53.3521 48.5533 53.2874 48.6288 53.2226C48.9562 52.9564 49.0389 52.4852 48.8195 52.1218C48.6468 51.8376 48.4777 51.5606 48.3231 51.3124C48.1036 50.9635 48.172 50.5138 48.4741 50.2332C49.0533 49.6972 49.6109 49.136 50.1433 48.5533C50.4167 48.2547 50.8592 48.1827 51.2081 48.395C51.4635 48.5497 51.7441 48.7223 52.0391 48.895C52.3988 49.1073 52.8629 49.0209 53.1255 48.6936C53.1903 48.6144 53.2514 48.5353 53.3162 48.4561C53.5788 48.1216 53.5572 47.6431 53.2622 47.3374C53.032 47.0999 52.8089 46.8697 52.6003 46.6647C52.3089 46.3733 52.2765 45.9164 52.5104 45.5783C52.9564 44.9272 53.3773 44.258 53.7694 43.571C53.9709 43.2184 54.3882 43.0493 54.7695 43.1788C55.0537 43.276 55.3666 43.3767 55.694 43.481C56.0933 43.6069 56.525 43.4199 56.7085 43.0421C56.7516 42.9522 56.7948 42.8623 56.838 42.7688C57.0214 42.3838 56.8919 41.9234 56.5358 41.6895C56.2588 41.5061 55.9854 41.3334 55.7372 41.1787C55.3882 40.9593 55.2551 40.524 55.4098 40.1391C55.7012 39.4052 55.9602 38.6606 56.1904 37.898C56.3091 37.5094 56.6761 37.2504 57.079 37.29C57.3812 37.3188 57.7121 37.3512 58.0575 37.3799C58.4747 37.4159 58.8561 37.1353 58.9496 36.7252C58.9712 36.6281 58.9928 36.531 59.0143 36.4338C59.1079 36.0201 58.8812 35.5993 58.4819 35.4518C58.1654 35.3367 57.8596 35.2251 57.579 35.128C57.1941 34.9913 56.9675 34.5956 57.0286 34.1891C57.1473 33.4121 57.2337 32.6279 57.2876 31.8292C57.3164 31.4227 57.6186 31.0882 58.0215 31.0378C58.3273 30.9983 58.6654 30.9551 59.0107 30.9047C59.4208 30.8436 59.8669 30.4946 59.8741 30.0737C59.8741 29.9982 60.0108 29.9191 60.0108 29.8435V29.7644C60.0108 29.3399 59.5575 28.9838 59.1367 28.9298L59.1259 28.9154ZM38.2757 13.2454C38.5923 12.6231 38.9088 12.0007 39.2254 11.3748C39.9628 9.92146 41.8047 9.42862 43.1501 10.3459C45.6862 12.0763 47.8698 14.2706 49.5929 16.8176C50.5066 18.1666 50.0174 20.0192 48.5677 20.7602C47.9453 21.0768 47.3266 21.397 46.7043 21.7135C45.5027 22.3287 44.0314 21.9617 43.258 20.8538C42.1356 19.2422 40.7363 17.8392 39.1319 16.7096C38.0275 15.9326 37.6605 14.4541 38.2757 13.249V13.2454ZM25.3469 6.73062C28.3578 6.15145 31.4479 6.15145 34.4589 6.73062C36.0561 7.03639 37.013 8.69477 36.5094 10.2452C36.2936 10.9107 36.0777 11.5762 35.8655 12.2417C35.4482 13.5296 34.1495 14.3174 32.8221 14.08C30.894 13.7382 28.919 13.7382 26.9872 14.08C25.6598 14.3174 24.3612 13.5296 23.9439 12.2417C23.7281 11.5762 23.5122 10.9107 23.3 10.2452C22.7963 8.69477 23.7568 7.03639 25.3505 6.73062H25.3469ZM10.2129 16.8176C11.936 14.2706 14.1196 12.0763 16.6557 10.3459C18.0011 9.42862 19.8429 9.92146 20.5804 11.3748C20.8969 11.9971 21.2135 12.6195 21.5301 13.2454C22.1416 14.4541 21.7783 15.929 20.6739 16.706C19.0695 17.8356 17.6701 19.235 16.5478 20.8502C15.7743 21.9617 14.303 22.3251 13.1015 21.7099C12.4792 21.3934 11.8604 21.0732 11.2381 20.7566C9.79197 20.0156 9.30273 18.163 10.2129 16.814V16.8176ZM6.61192 34.6963C6.03634 31.6746 6.03634 28.5701 6.61192 25.5447C6.91769 23.9403 8.56527 22.9798 10.1121 23.4834C10.774 23.6993 11.436 23.9151 12.0979 24.1309C13.3821 24.5482 14.1627 25.8541 13.9289 27.1887C13.5872 29.1276 13.5872 31.1098 13.9289 33.0487C14.1627 34.3834 13.3821 35.6856 12.0979 36.1065C11.436 36.3223 10.774 36.5382 10.1121 36.754C8.56527 37.2576 6.91769 36.2971 6.61192 34.6927V34.6963ZM21.5301 46.9956C21.2135 47.618 20.8969 48.2403 20.5804 48.8662C19.8429 50.3196 18.0011 50.8124 16.6557 49.8951C14.1196 48.1648 11.936 45.9704 10.2129 43.4235C9.29913 42.0745 9.78837 40.2218 11.2381 39.4808C11.8604 39.1642 12.4792 38.8441 13.1015 38.5275C14.303 37.9123 15.7743 38.2793 16.5478 39.3873C17.6701 40.9989 19.0695 42.4018 20.6739 43.5314C21.7783 44.3084 22.1452 45.7869 21.5301 46.992V46.9956ZM34.4589 53.5104C31.4479 54.0896 28.3578 54.0896 25.3469 53.5104C23.7496 53.2046 22.7927 51.5463 23.2964 49.9958C23.5122 49.3303 23.7281 48.6648 23.9403 47.9993C24.3576 46.7114 25.6562 45.9236 26.9836 46.161C28.9118 46.5028 30.8868 46.5028 32.8185 46.161C34.1459 45.9236 35.4446 46.7114 35.8619 47.9993C36.0777 48.6648 36.2936 49.3303 36.5058 49.9958C37.0094 51.5463 36.0489 53.2046 34.4553 53.5104H34.4589ZM29.9047 41.0888C23.764 41.0888 18.7853 36.0885 18.7853 29.9191C18.7853 23.7496 23.764 18.7493 29.9047 18.7493C36.0453 18.7493 41.0241 23.7496 41.0241 29.9191C41.0241 36.0885 36.0453 41.0888 29.9047 41.0888ZM49.5929 43.4235C47.8698 45.9704 45.6862 48.1648 43.1501 49.8951C41.8047 50.8124 39.9628 50.3196 39.2254 48.8662C38.9088 48.2439 38.5923 47.6216 38.2757 46.9956C37.6641 45.7869 38.0275 44.312 39.1319 43.535C40.7363 42.4054 42.1356 41.0061 43.258 39.3909C44.0314 38.2793 45.5027 37.9159 46.7043 38.5311C47.3266 38.8477 47.9453 39.1678 48.5677 39.4844C50.0138 40.2254 50.503 42.0781 49.5929 43.4271V43.4235ZM53.1938 34.6963C52.8881 36.2971 51.2405 37.2612 49.6936 36.7576C49.0317 36.5418 48.3698 36.3259 47.7079 36.1101C46.4237 35.6928 45.643 34.387 45.8769 33.0523C46.2186 31.1134 46.2186 29.1312 45.8769 27.1923C45.643 25.8577 46.4237 24.5554 47.7079 24.1345C48.3698 23.9187 49.0317 23.7029 49.6936 23.487C51.2405 22.9834 52.8881 23.9439 53.1938 25.5483C53.7694 28.5701 53.7694 31.6746 53.1938 34.6999V34.6963Z" fill="#F27400"/>
</svg>
